<?xml version="1.0" encoding="UTF-8"?>
<svg version="1.1" xmlns="http://www.w3.org/2000/svg" width="512" height="512">
<path d="M0 0 C1.95477793 1.0070569 3.91053735 2.01221055 5.8671875 3.015625 C6.8581543 3.52673828 7.84912109 4.03785156 8.87011719 4.56445312 C13.41485847 6.87830415 18.01644318 9.06676145 22.625 11.25 C32.16839158 15.78744363 41.68211322 20.38367018 51.1875 25 C60.88567708 29.70889298 70.58910813 34.40581051 80.3125 39.0625 C90.71043703 44.04252857 101.08547459 49.06887109 111.45703125 54.10351562 C120.3990757 58.44375841 129.34791564 62.76893591 138.3125 67.0625 C147.9937581 71.69931309 157.65569014 76.37506638 167.3125 81.0625 C177.26283809 85.89171365 187.21718912 90.71210311 197.1875 95.5 C198.69050659 96.22328491 198.69050659 96.22328491 200.22387695 96.96118164 C204.92163952 99.21715171 209.62852415 101.44763528 214.36328125 103.625 C215.23355957 104.0279126 216.10383789 104.4308252 217.00048828 104.84594727 C218.59807088 105.58356916 220.19902451 106.3139611 221.80419922 107.03491211 C227.42021713 109.63326321 231.96949629 112.54372827 235.6875 117.625 C237.76956785 123.98687397 238.05812178 130.47898815 235.125 136.5625 C231.36188739 140.63072984 227.40033795 143.45790205 222.4453125 145.91015625 C221.40753662 146.42682861 220.36976074 146.94350098 219.30053711 147.47583008 C218.19073486 148.02005615 217.08093262 148.56428223 215.9375 149.125 C214.77420166 149.70080811 213.61090332 150.27661621 212.41235352 150.86987305 C204.31550304 154.87138853 196.18116672 158.79461223 188.0234375 162.67041016 C182.12093209 165.4749099 176.23288701 168.30745964 170.35546875 171.1640625 C169.61979172 171.52153061 168.88411469 171.87899872 168.12614441 172.24729919 C165.17632696 173.68107477 162.22672778 175.11528702 159.27853394 176.55239868 C151.84136153 180.17759954 144.4054771 183.77108753 136.8125 187.0625 C137.66585938 187.48917969 138.51921875 187.91585937 139.3984375 188.35546875 C139.98568604 188.6491333 140.57293457 188.94279785 141.17797852 189.24536133 C142.55594172 189.93425923 143.9340412 190.62288459 145.31225586 191.3112793 C149.829852 193.56839974 154.34409152 195.8320353 158.85546875 198.1015625 C169.28047275 203.33980819 179.71859498 208.54099462 190.25 213.5625 C191.16322021 213.99876709 192.07644043 214.43503418 193.01733398 214.88452148 C197.73857549 217.13559829 202.4667157 219.37083539 207.20515442 221.58551025 C209.68114988 222.74521025 212.15300357 223.91357341 214.6242981 225.08325195 C216.39358609 225.91681098 218.16829539 226.73883211 219.94311523 227.56054688 C227.5255351 231.15527578 233.06989812 234.22942619 236.8125 242.0625 C237.28125 244.89453125 237.28125 244.89453125 237.3125 247.875 C237.3434375 248.85082031 237.374375 249.82664062 237.40625 250.83203125 C236.43008545 256.14313705 234.19607134 260.29452043 229.80371094 263.55249023 C227.39364521 264.94744958 224.95121284 266.17692078 222.4375 267.375 C221.50905273 267.8388208 220.58060547 268.3026416 219.62402344 268.78051758 C216.69832651 270.23282255 213.75814244 271.65114878 210.8125 273.0625 C209.03384825 273.92446695 207.25520228 274.78644584 205.4765625 275.6484375 C201.76500046 277.43731309 198.04495161 279.20728031 194.3203125 280.96875 C186.49911496 284.67365743 178.72047247 288.46568297 170.9375 292.25 C161.41115602 296.88092899 151.88469148 301.50660171 142.26611328 305.9440918 C139.3324849 307.18571883 139.3324849 307.18571883 136.8125 309.0625 C138.58723958 309.91927083 140.36197917 310.77604167 142.13671875 311.6328125 C145.91276042 313.45572917 149.68880208 315.27864583 153.46484375 317.1015625 C154.13335358 317.42429138 154.8018634 317.74702026 155.4906311 318.07952881 C158.25805664 319.41552734 161.02548218 320.75152588 163.79290771 322.08752441 C164.45937317 322.40926636 165.12583862 322.7310083 165.8125 323.0625 C166.44158264 323.36619507 167.07066528 323.66989014 167.71881104 323.98278809 C168.63264557 324.42394958 168.63264557 324.42394958 169.56494141 324.87402344 C170.1642749 325.16336258 170.7636084 325.45270172 171.38110352 325.75080872 C173.17281983 326.61575788 174.9645837 327.48060851 176.75634766 328.34545898 C179.13261421 329.49280779 181.50858959 330.64075985 183.88427734 331.78930664 C189.51360103 334.50995534 195.14544118 337.22475681 200.78799438 339.9178772 C203.43224045 341.18040396 206.07482042 342.44639646 208.71728516 343.71264648 C209.96922685 344.31138031 211.22196967 344.90844246 212.47558594 345.50366211 C232.8772232 355.1919464 232.8772232 355.1919464 236.8125 363.0625 C237.95703528 375.4272336 237.95703528 375.4272336 234.27075195 380.4387207 C227.67946939 387.77818502 217.07177441 391.52418415 208.3125 395.6875 C206.82847452 396.39911111 205.34475443 397.11135943 203.86132812 397.82421875 C200.18268946 399.59031343 196.5006247 401.34912055 192.81738281 403.10559082 C188.95698637 404.94811686 185.10191565 406.80173549 181.24609375 408.65380859 C179.2803753 409.59773298 177.31422475 410.54075802 175.34765625 411.48291016 C166.65580754 415.64845348 157.9833258 419.85343793 149.3125 424.0625 C138.66866547 429.22931585 128.01463425 434.37358307 117.34375 439.484375 C108.653605 443.65026925 99.9820817 447.85404185 91.3125 452.0625 C80.66866547 457.22931585 70.01463425 462.37358307 59.34375 467.484375 C51.36796192 471.3078198 43.40771335 475.16271962 35.45071411 479.02505493 C33.32814935 480.05490705 31.20506323 481.08367595 29.08178711 482.11206055 C27.68862722 482.78692163 26.29547935 483.46180752 24.90234375 484.13671875 C24.21937729 484.4675798 23.53641083 484.79844086 22.83274841 485.139328 C18.38404286 487.29612018 13.94269872 489.46741213 9.50390625 491.64453125 C7.29433104 492.7214777 5.0846992 493.79830798 2.875 494.875 C1.89402344 495.36033203 0.91304688 495.84566406 -0.09765625 496.34570312 C-9.76425509 501.03763864 -17.56494197 504.68754368 -28.1875 501.0625 C-31.69129053 499.60506122 -35.02455823 497.90343209 -38.375 496.125 C-40.32977793 495.1179431 -42.28553735 494.11278945 -44.2421875 493.109375 C-45.7286377 492.34270508 -45.7286377 492.34270508 -47.24511719 491.56054688 C-51.78985847 489.24669585 -56.39144318 487.05823855 -61 484.875 C-70.54339158 480.33755637 -80.05711322 475.74132982 -89.5625 471.125 C-99.26067708 466.41610702 -108.96410813 461.71918949 -118.6875 457.0625 C-129.08543703 452.08247143 -139.46047459 447.05612891 -149.83203125 442.02148438 C-158.7740757 437.68124159 -167.72291564 433.35606409 -176.6875 429.0625 C-186.3687581 424.42568691 -196.03069014 419.74993362 -205.6875 415.0625 C-215.6378397 410.23328557 -225.59234587 405.41322604 -235.5625 400.625 C-237.06659424 399.90062744 -237.06659424 399.90062744 -238.60107422 399.16162109 C-243.28376476 396.91147691 -247.97623237 394.69105979 -252.703125 392.53515625 C-253.5688916 392.13675537 -254.4346582 391.73835449 -255.32666016 391.32788086 C-256.91037394 390.601351 -258.49822313 389.88372186 -260.09130859 389.17797852 C-265.92050698 386.4953209 -271.37305995 383.27536208 -274.6015625 377.55859375 C-276.03894922 371.4353263 -276.25042433 365.26708379 -273.5 359.5625 C-269.73688739 355.49427016 -265.77533795 352.66709795 -260.8203125 350.21484375 C-259.78253662 349.69817139 -258.74476074 349.18149902 -257.67553711 348.64916992 C-256.56573486 348.10494385 -255.45593262 347.56071777 -254.3125 347 C-253.14920166 346.42419189 -251.98590332 345.84838379 -250.78735352 345.25512695 C-242.69050304 341.25361147 -234.55616672 337.33038777 -226.3984375 333.45458984 C-220.49593209 330.6500901 -214.60788701 327.81754036 -208.73046875 324.9609375 C-207.99479172 324.60346939 -207.25911469 324.24600128 -206.50114441 323.87770081 C-203.55132696 322.44392523 -200.60172778 321.00971298 -197.65353394 319.57260132 C-190.21636153 315.94740046 -182.7804771 312.35391247 -175.1875 309.0625 C-176.04085937 308.63582031 -176.89421875 308.20914062 -177.7734375 307.76953125 C-178.36068604 307.4758667 -178.94793457 307.18220215 -179.55297852 306.87963867 C-180.93094172 306.19074077 -182.3090412 305.50211541 -183.68725586 304.8137207 C-188.204852 302.55660026 -192.71909152 300.2929647 -197.23046875 298.0234375 C-207.65547275 292.78519181 -218.09359498 287.58400538 -228.625 282.5625 C-229.99483032 281.90809937 -229.99483032 281.90809937 -231.39233398 281.24047852 C-236.11357549 278.98940171 -240.8417157 276.75416461 -245.58015442 274.53948975 C-248.05614988 273.37978975 -250.52800357 272.21142659 -252.9992981 271.04174805 C-254.76858609 270.20818902 -256.54329539 269.38616789 -258.31811523 268.56445312 C-265.9005351 264.96972422 -271.44489812 261.89557381 -275.1875 254.0625 C-275.65625 251.23046875 -275.65625 251.23046875 -275.6875 248.25 C-275.7184375 247.27417969 -275.749375 246.29835937 -275.78125 245.29296875 C-274.80508545 239.98186295 -272.57107134 235.83047957 -268.17871094 232.57250977 C-265.76864521 231.17755042 -263.32621284 229.94807922 -260.8125 228.75 C-259.88405273 228.2861792 -258.95560547 227.8223584 -257.99902344 227.34448242 C-255.07332651 225.89217745 -252.13314244 224.47385122 -249.1875 223.0625 C-247.40884825 222.20053305 -245.63020228 221.33855416 -243.8515625 220.4765625 C-240.14000046 218.68768691 -236.41995161 216.91771969 -232.6953125 215.15625 C-224.87411496 211.45134257 -217.09547247 207.65931703 -209.3125 203.875 C-199.78615602 199.24407101 -190.25969148 194.61839829 -180.64111328 190.1809082 C-177.7074849 188.93928117 -177.7074849 188.93928117 -175.1875 187.0625 C-175.91412842 186.71171387 -176.64075684 186.36092773 -177.3894043 185.99951172 C-207.93994141 171.25097656 -207.93994141 171.25097656 -209.75610352 170.37419128 C-211.54781983 169.50924212 -213.3395837 168.64439149 -215.13134766 167.77954102 C-217.50761421 166.63219221 -219.88358959 165.48424015 -222.25927734 164.33569336 C-227.88860103 161.61504466 -233.52044118 158.90024319 -239.16299438 156.2071228 C-241.80724045 154.94459604 -244.44982042 153.67860354 -247.09228516 152.41235352 C-248.34422685 151.81361969 -249.59696967 151.21655754 -250.85058594 150.62133789 C-271.2522232 140.9330536 -271.2522232 140.9330536 -275.1875 133.0625 C-276.18070883 120.30358659 -276.18070883 120.30358659 -272.1875 115.0625 C-265.25897316 108.56074369 -256.22473665 104.95613653 -247.75 100.9375 C-246.16644188 100.17862392 -244.58327531 99.41893029 -243.00048828 98.65844727 C-239.09972861 96.78634879 -235.19462416 94.92353531 -231.2880249 93.06365967 C-227.34701685 91.18528236 -223.41309182 89.29217141 -219.47827148 87.40087891 C-217.52653066 86.46316737 -215.57421415 85.52665316 -213.62133789 84.59130859 C-204.96268187 80.44387921 -196.32430717 76.25516657 -187.6875 72.0625 C-177.04368118 66.89565206 -166.38963402 61.75141682 -155.71875 56.640625 C-147.028605 52.47473075 -138.3570817 48.27095815 -129.6875 44.0625 C-119.04366547 38.89568415 -108.38963425 33.75141693 -97.71875 28.640625 C-89.74296192 24.8171802 -81.78271335 20.96228038 -73.82571411 17.09994507 C-71.70314935 16.07009295 -69.58006323 15.04132405 -67.45678711 14.01293945 C-66.06362722 13.33807837 -64.67047935 12.66319248 -63.27734375 11.98828125 C-62.59437729 11.6574202 -61.91141083 11.32655914 -61.20774841 10.985672 C-56.75904286 8.82887982 -52.31769872 6.65758787 -47.87890625 4.48046875 C-45.66933104 3.4035223 -43.4596992 2.32669202 -41.25 1.25 C-40.26902344 0.76466797 -39.28804687 0.27933594 -38.27734375 -0.22070312 C-23.34164548 -7.47013327 -14.77864278 -7.84458121 0 0 Z " fill="#008CFE" transform="translate(275.1875,7.9375)"/>
<path d="M0 0 C1.95477793 1.0070569 3.91053735 2.01221055 5.8671875 3.015625 C6.8581543 3.52673828 7.84912109 4.03785156 8.87011719 4.56445312 C13.41485847 6.87830415 18.01644318 9.06676145 22.625 11.25 C32.16839158 15.78744363 41.68211322 20.38367018 51.1875 25 C60.88567708 29.70889298 70.58910813 34.40581051 80.3125 39.0625 C90.71043703 44.04252857 101.08547459 49.06887109 111.45703125 54.10351562 C120.3990757 58.44375841 129.34791564 62.76893591 138.3125 67.0625 C147.9937581 71.69931309 157.65569014 76.37506638 167.3125 81.0625 C177.26283809 85.89171365 187.21718912 90.71210311 197.1875 95.5 C198.69050659 96.22328491 198.69050659 96.22328491 200.22387695 96.96118164 C204.92163952 99.21715171 209.62852415 101.44763528 214.36328125 103.625 C215.23355957 104.0279126 216.10383789 104.4308252 217.00048828 104.84594727 C218.59807088 105.58356916 220.19902451 106.3139611 221.80419922 107.03491211 C227.42021713 109.63326321 231.96949629 112.54372827 235.6875 117.625 C237.76956785 123.98687397 238.05812178 130.47898815 235.125 136.5625 C231.36188739 140.63072984 227.40033795 143.45790205 222.4453125 145.91015625 C221.40753662 146.42682861 220.36976074 146.94350098 219.30053711 147.47583008 C218.19073486 148.02005615 217.08093262 148.56428223 215.9375 149.125 C214.77420166 149.70080811 213.61090332 150.27661621 212.41235352 150.86987305 C204.31550304 154.87138853 196.18116672 158.79461223 188.0234375 162.67041016 C182.12093209 165.4749099 176.23288701 168.30745964 170.35546875 171.1640625 C169.61979172 171.52153061 168.88411469 171.87899872 168.12614441 172.24729919 C165.17632696 173.68107477 162.22672778 175.11528702 159.27853394 176.55239868 C154.79674386 178.73701782 150.30921935 180.90875427 145.8125 183.0625 C144.92401367 183.48805176 144.03552734 183.91360352 143.12011719 184.35205078 C141.98944824 184.87581299 141.98944824 184.87581299 140.8359375 185.41015625 C140.23442871 185.68996338 139.63291992 185.96977051 139.01318359 186.25805664 C136.8125 187.0625 136.8125 187.0625 133.1472168 187.890625 C128.23697932 189.08333889 123.93457585 191.20904504 119.43359375 193.46484375 C118.55282669 193.89832626 117.67205963 194.33180878 116.76460266 194.77842712 C113.92291838 196.17868527 111.08654872 197.58937229 108.25 199 C106.28397013 199.9704587 104.3174967 200.94001933 102.35058594 201.90869141 C99.44463042 203.33995722 96.53893189 204.77171291 93.63467407 206.2064209 C86.96710973 209.50017029 80.28128973 212.74930872 73.5625 215.9375 C67.23236088 218.9424212 60.91910749 221.97919407 54.62109375 225.05078125 C53.18068801 225.75216507 51.74025829 226.45349965 50.29980469 227.15478516 C48.16230659 228.1955062 46.02548732 229.2375071 43.89074707 230.28387451 C41.92230854 231.24867263 39.95163044 232.20874955 37.98046875 233.16796875 C36.83860107 233.72637451 35.6967334 234.28478027 34.52026367 234.86010742 C31.8125 236.0625 31.8125 236.0625 29.8125 236.0625 C29.4825 237.0525 29.1525 238.0425 28.8125 239.0625 C26.67382813 240.37768555 26.67382813 240.37768555 23.84375 241.69921875 C22.28648193 242.43652222 22.28648193 242.43652222 20.69775391 243.1887207 C19.02205322 243.96155396 19.02205322 243.96155396 17.3125 244.75 C15.01805826 245.81994608 12.72378793 246.8902598 10.4296875 247.9609375 C9.30014648 248.48526367 8.17060547 249.00958984 7.00683594 249.54980469 C4.22411798 250.86757605 1.48649279 252.23879934 -1.2421875 253.6640625 C-1.98275391 254.04216064 -2.72332031 254.42025879 -3.48632812 254.80981445 C-4.81561374 255.491808 -6.13583493 256.19195658 -7.44335938 256.91479492 C-13.05872353 259.72921903 -18.14091102 259.45896475 -24.1875 258.0625 C-28.73914377 256.42606211 -33.03665568 254.38163903 -37.375 252.25 C-38.60704327 251.6596686 -39.8397216 251.07066095 -41.07299805 250.48291016 C-44.79108268 248.70273795 -48.49174036 246.88849787 -52.1875 245.0625 C-53.26418945 244.53060059 -54.34087891 243.99870117 -55.45019531 243.45068359 C-60.45317388 240.96817494 -65.44372895 238.46179489 -70.4296875 235.9453125 C-76.8812891 232.69893761 -83.39344614 229.58671006 -89.91577148 226.4855957 C-98.48557779 222.40806729 -107.02558556 218.27078816 -115.5625 214.125 C-129.41905983 207.39886886 -143.28384537 200.69092331 -157.1875 194.0625 C-157.90357422 193.71977051 -158.61964844 193.37704102 -159.35742188 193.02392578 C-161.13131358 192.17672725 -162.90920995 191.33792699 -164.6875 190.5 C-165.5640625 190.08621094 -166.440625 189.67242187 -167.34375 189.24609375 C-169.69253763 188.26850769 -171.98624784 187.47156045 -174.40625 186.703125 C-179.55386974 185.01799389 -184.32876138 182.75358415 -189.1875 180.375 C-190.16025879 179.90441162 -191.13301758 179.43382324 -192.13525391 178.94897461 C-195.48852248 177.32529487 -198.83789525 175.69372357 -202.1875 174.0625 C-204.84057222 172.77485754 -207.49447636 171.48893415 -210.1484375 170.203125 C-214.36932419 168.15796461 -218.58988182 166.11214347 -222.80859375 164.0625 C-229.37674815 160.87222648 -235.94906118 157.691817 -242.5390625 154.546875 C-243.66779785 154.00796631 -244.7965332 153.46905762 -245.95947266 152.91381836 C-248.0334686 151.9251331 -250.10857358 150.93876911 -252.18505859 149.95532227 C-271.29694484 140.84361032 -271.29694484 140.84361032 -275.1875 133.0625 C-276.18070883 120.30358659 -276.18070883 120.30358659 -272.1875 115.0625 C-265.25897316 108.56074369 -256.22473665 104.95613653 -247.75 100.9375 C-246.16644188 100.17862392 -244.58327531 99.41893029 -243.00048828 98.65844727 C-239.09972861 96.78634879 -235.19462416 94.92353531 -231.2880249 93.06365967 C-227.34701685 91.18528236 -223.41309182 89.29217141 -219.47827148 87.40087891 C-217.52653066 86.46316737 -215.57421415 85.52665316 -213.62133789 84.59130859 C-204.96268187 80.44387921 -196.32430717 76.25516657 -187.6875 72.0625 C-177.04368118 66.89565206 -166.38963402 61.75141682 -155.71875 56.640625 C-147.028605 52.47473075 -138.3570817 48.27095815 -129.6875 44.0625 C-119.04366547 38.89568415 -108.38963425 33.75141693 -97.71875 28.640625 C-89.74296192 24.8171802 -81.78271335 20.96228038 -73.82571411 17.09994507 C-71.70314935 16.07009295 -69.58006323 15.04132405 -67.45678711 14.01293945 C-66.06362722 13.33807837 -64.67047935 12.66319248 -63.27734375 11.98828125 C-62.59437729 11.6574202 -61.91141083 11.32655914 -61.20774841 10.985672 C-56.75904286 8.82887982 -52.31769872 6.65758787 -47.87890625 4.48046875 C-45.66933104 3.4035223 -43.4596992 2.32669202 -41.25 1.25 C-40.26902344 0.76466797 -39.28804687 0.27933594 -38.27734375 -0.22070312 C-23.34164548 -7.47013327 -14.77864278 -7.84458121 0 0 Z " fill="#00C2FE" transform="translate(275.1875,7.9375)"/>
<path d="M0 0 C0.79454086 0.39036942 1.58908173 0.78073883 2.40769958 1.18293762 C4.98495022 2.45090297 7.55682484 3.72939895 10.12890625 5.0078125 C11.91574026 5.88866599 13.70301499 6.76862603 15.49072266 7.64770508 C19.00043092 9.3737921 22.50873367 11.10268287 26.01611328 12.83349609 C31.51143044 15.54109653 37.03209533 18.19342759 42.56640625 20.8203125 C51.03238698 24.84935581 59.47361125 28.927839 67.9079895 33.02249146 C88.21364275 42.88955182 88.21364275 42.88955182 108.57324219 52.64453125 C110.76964682 53.69286218 112.96271227 54.74820351 115.15332031 55.80859375 C118.68002598 57.51466048 122.21589259 59.20034468 125.75390625 60.8828125 C127.36930298 61.67220215 127.36930298 61.67220215 129.01733398 62.47753906 C135.66596369 65.60791581 140.6354687 67.79949565 147.92211914 65.39746094 C150.39758391 64.40001155 152.78821846 63.29336034 155.19140625 62.1328125 C156.07231934 61.7212793 156.95323242 61.30974609 157.86083984 60.88574219 C160.48068435 59.65382255 163.08802387 58.39910097 165.69140625 57.1328125 C166.37235352 56.80216797 167.05330078 56.47152344 167.75488281 56.13085938 C171.62676818 54.23811624 175.47202582 52.29490988 179.31298828 50.34033203 C193.30432691 43.23694866 207.34638076 36.24248879 221.51831055 29.50634766 C230.05598319 25.44687118 238.56277596 21.32545659 247.06640625 17.1953125 C258.4066799 11.68859006 269.7577195 6.20564702 281.12841797 0.76196289 C282.07346191 0.30942139 283.01850586 -0.14312012 283.9921875 -0.609375 C284.80856689 -0.9997998 285.62494629 -1.39022461 286.46606445 -1.79248047 C287.9258026 -2.49744671 289.36962393 -3.23658728 290.79321289 -4.01196289 C293.8854304 -5.40515105 296.55394312 -4.77315753 299.69140625 -3.8671875 C303.41101354 -2.36695099 306.97902276 -0.59493205 310.56640625 1.1953125 C311.64212891 1.72189453 312.71785156 2.24847656 313.82617188 2.79101562 C316.18512686 3.94579551 318.54226337 5.10374122 320.89746094 6.26611328 C326.94271487 9.24581583 333.01322552 12.17364999 339.07965088 15.10992432 C341.19163787 16.13292469 343.30274584 17.15771681 345.41357422 18.18310547 C351.94538168 21.35541274 358.48176289 24.51701896 365.03515625 27.64453125 C366.16501953 28.18400391 367.29488281 28.72347656 368.45898438 29.27929688 C370.53459708 30.26881858 372.6113273 31.25600149 374.68945312 32.24023438 C393.80080794 41.35161589 393.80080794 41.35161589 397.69140625 49.1328125 C398.83594153 61.4975461 398.83594153 61.4975461 395.1496582 66.5090332 C388.55837564 73.84849752 377.95068066 77.59449665 369.19140625 81.7578125 C367.70738077 82.46942361 366.22366068 83.18167193 364.74023438 83.89453125 C361.06159571 85.66062593 357.37953095 87.41943305 353.69628906 89.17590332 C349.83589262 91.01842936 345.9808219 92.87204799 342.125 94.72412109 C340.15928155 95.66804548 338.193131 96.61107052 336.2265625 97.55322266 C327.53471379 101.71876598 318.86223205 105.92375043 310.19140625 110.1328125 C299.54757172 115.29962835 288.8935405 120.44389557 278.22265625 125.5546875 C269.53251125 129.72058175 260.86098795 133.92435435 252.19140625 138.1328125 C241.54757172 143.29962835 230.8935405 148.44389557 220.22265625 153.5546875 C212.24686817 157.3781323 204.2866196 161.23303212 196.32962036 165.09536743 C194.2070556 166.12521955 192.08396948 167.15398845 189.96069336 168.18237305 C188.56753347 168.85723413 187.1743856 169.53212002 185.78125 170.20703125 C185.09828354 170.5378923 184.41531708 170.86875336 183.71165466 171.2096405 C179.26294911 173.36643268 174.82160497 175.53772463 170.3828125 177.71484375 C168.17323729 178.7917902 165.96360545 179.86862048 163.75390625 180.9453125 C162.77292969 181.43064453 161.79195313 181.91597656 160.78125 182.41601562 C151.11465116 187.10795114 143.31396428 190.75785618 132.69140625 187.1328125 C129.18761572 185.67537372 125.85434802 183.97374459 122.50390625 182.1953125 C120.54912832 181.1882556 118.5933689 180.18310195 116.63671875 179.1796875 C115.15026855 178.41301758 115.15026855 178.41301758 113.63378906 177.63085938 C109.08904778 175.31700835 104.48746307 173.12855105 99.87890625 170.9453125 C90.33551467 166.40786887 80.82179303 161.81164232 71.31640625 157.1953125 C61.61822917 152.48641952 51.91479812 147.78950199 42.19140625 143.1328125 C31.79346922 138.15278393 21.41843166 133.12644141 11.046875 128.09179688 C2.10483055 123.75155409 -6.84400939 119.42637659 -15.80859375 115.1328125 C-25.48985185 110.49599941 -35.15178389 105.82024612 -44.80859375 101.1328125 C-54.75893345 96.30359807 -64.71343962 91.48353854 -74.68359375 86.6953125 C-75.68632324 86.21239746 -76.68905273 85.72948242 -77.72216797 85.23193359 C-82.40485851 82.98178941 -87.09732612 80.76137229 -91.82421875 78.60546875 C-92.68998535 78.20706787 -93.55575195 77.80866699 -94.44775391 77.39819336 C-96.03146769 76.6716635 -97.61931688 75.95403436 -99.21240234 75.24829102 C-105.04160073 72.5656334 -110.4941537 69.34567458 -113.72265625 63.62890625 C-115.16004297 57.5056388 -115.37151808 51.33739629 -112.62109375 45.6328125 C-108.85798114 41.56458266 -104.8964317 38.73741045 -99.94140625 36.28515625 C-98.90363037 35.76848389 -97.86585449 35.25181152 -96.79663086 34.71948242 C-95.13192749 33.90314331 -95.13192749 33.90314331 -93.43359375 33.0703125 C-92.27029541 32.49450439 -91.10699707 31.91869629 -89.90844727 31.32543945 C-81.81159679 27.32392397 -73.67726047 23.40070027 -65.51953125 19.52490234 C-59.61702584 16.7204026 -53.72898076 13.88785286 -47.8515625 11.03125 C-47.11588547 10.67378189 -46.38020844 10.31631378 -45.62223816 9.94801331 C-42.67242071 8.51423773 -39.72282153 7.08002548 -36.77462769 5.64291382 C-33.43757709 4.01629041 -30.09843582 2.39466038 -26.75097656 0.78955078 C-24.67402323 -0.21003825 -22.60344246 -1.22325276 -20.54589844 -2.26220703 C-19.77407227 -2.63845215 -19.00224609 -3.01469727 -18.20703125 -3.40234375 C-17.26996338 -3.87426147 -17.26996338 -3.87426147 -16.31396484 -4.35571289 C-10.46189167 -5.8482979 -5.0799789 -2.54659729 0 0 Z " fill="#FE7FBD" transform="translate(114.30859375,321.8671875)"/>
<path d="M0 0 C1.38208528 2.32059589 2.57502394 4.71277662 3.78125 7.12890625 C10.05680803 15.24956673 20.24360999 19.32345858 29.3125 23.5625 C30.58900079 24.16765227 31.86503265 24.77379455 33.140625 25.38085938 C35.78158195 26.63678441 38.42447095 27.88849946 41.06884766 29.13720703 C47.23169328 32.05179729 53.36391773 35.02957931 59.5 38 C61.91635446 39.1673137 64.33317764 40.33365541 66.75 41.5 C67.95834198 42.08331541 69.16667532 42.66664874 70.375 43.25 C70.973125 43.53875 71.57125 43.8275 72.1875 44.125 C132.90625 73.4375 132.90625 73.4375 193.625 102.75 C194.52212708 103.18309479 194.52212708 103.18309479 195.43737793 103.62493896 C196.64612036 104.2084712 197.85486059 104.79200798 199.06359863 105.37554932 C202.07815478 106.83087678 205.09274868 108.28612595 208.10742188 109.74121094 C213.61973589 112.40192308 219.13173023 115.06328937 224.64237976 117.72744751 C239.40615121 124.86501762 254.18353084 131.97229769 269 139 C266.03707197 142.18352396 262.65261897 143.82261629 258.75 145.625 C258.10675781 145.93695313 257.46351563 146.24890625 256.80078125 146.5703125 C248.40578068 150.48910552 242.57552973 150.06064553 234 147 C230.30195704 145.41487866 226.70986308 143.64566086 223.11328125 141.84375 C222.09437302 141.34137817 221.07546478 140.83900635 220.02568054 140.32141113 C216.78430735 138.72152388 213.54825434 137.11121625 210.3125 135.5 C206.08069587 133.40368213 201.84691792 131.31136389 197.61328125 129.21875 C196.56460876 128.69946426 195.51593628 128.18017853 194.43548584 127.64515686 C184.51889615 122.7421091 174.53941379 117.97521558 164.55197144 113.21868896 C158.88614091 110.51298269 153.24059654 107.76531845 147.59399414 105.01977539 C137.24190453 99.98684999 126.88156511 94.97189928 116.5 90 C106.10206297 85.01997143 95.72702541 79.99362891 85.35546875 74.95898438 C76.41342326 70.61874109 67.46449572 66.29375073 58.5 62 C49.35544947 57.6181258 40.2213324 53.21503658 31.09521484 48.79492188 C29.68962299 48.11423245 28.28386932 47.43387705 26.87792969 46.75390625 C22.92105607 44.83984791 18.96878969 42.91671178 15.02069092 40.98461914 C12.90302463 39.95274695 10.77991146 38.93259599 8.65673828 37.91210938 C7.23058216 37.2178835 5.80463191 36.52323449 4.37890625 35.828125 C3.72760239 35.51840759 3.07629852 35.20869019 2.40525818 34.8895874 C-2.62716568 32.41633265 -7.56295771 29.59581339 -10.3515625 24.55859375 C-11.89966724 18.45010817 -12.06366207 12.20611392 -9.3125 6.5 C-3.3 0 -3.3 0 0 0 Z " fill="#F962B1" transform="translate(11,361)"/>
<path d="M0 0 C2 1 2 1 3.25 3.625 C10.38333001 17.38213645 31.01827431 23.51398219 44.3125 29.81640625 C52.02292885 33.47628669 59.69819835 37.20778386 67.375 40.9375 C77.07298117 45.64679187 86.77661141 50.34331208 96.5 55 C106.89793703 59.98002857 117.27297459 65.00637109 127.64453125 70.04101562 C136.5865757 74.38125841 145.53541564 78.70643591 154.5 83 C164.89792311 87.98005791 175.27297441 93.006371 185.64453125 98.04101562 C194.58657647 102.38125878 203.53548025 106.70629984 212.5 111 C221.71862705 115.41679632 230.92531392 119.85784821 240.12451172 124.31494141 C241.55749363 125.00920691 242.99059464 125.70322666 244.42382812 126.39697266 C252.97952836 130.53898583 261.51038438 134.72370474 270 139 C266.4088783 141.39408113 262.68780416 143.23899643 258.8125 145.125 C257.71711914 145.68380859 257.71711914 145.68380859 256.59960938 146.25390625 C250.71559104 149.09949882 245.81432064 150.32061469 239.5065918 148.13671875 C236.43152595 146.83130475 233.43891933 145.4044846 230.4375 143.9375 C229.26292236 143.37820801 228.08834473 142.81891602 226.87817383 142.24267578 C222.57275359 140.18771498 218.2866637 138.0937325 214 136 C212.15565141 135.10129208 210.31124758 134.20269753 208.46679688 133.30419922 C200.41081392 129.3772293 192.35763371 125.44465192 184.31616211 121.48803711 C173.61992989 116.22603813 162.90063959 111.01867847 152.14080811 105.88786316 C146.61357289 103.25192577 141.09420481 100.60135174 135.58984375 97.91796875 C134.9563652 97.60920807 134.32288666 97.30044739 133.67021179 96.98233032 C132.40628678 96.36611878 131.14239605 95.74983692 129.87854004 95.13348389 C118.54885004 89.61185426 107.18300333 84.17939837 95.75 78.875 C82.30878781 72.63824756 68.95693952 66.22835157 55.62646484 59.75878906 C50.72682745 57.38149327 45.82278084 55.01334321 40.91821289 52.64624023 C38.49325845 51.47585691 36.06933981 50.30336882 33.64624023 49.12915039 C27.71348892 46.25796667 21.76967083 43.41593973 15.796875 40.62890625 C14.65186523 40.09088379 13.50685547 39.55286133 12.32714844 38.99853516 C10.17314126 37.98791571 8.01515435 36.98571772 5.85253906 35.99365234 C-1.18637842 32.67934798 -6.53485564 29.25236944 -10 22 C-11.15765633 15.00582637 -10.47482489 9.34254353 -6.38671875 3.5234375 C-4.47279065 1.42081227 -2.92893031 0 0 0 Z " fill="#0384DD" transform="translate(10,240)"/>
<path d="M0 0 C3.82471973 0.44593145 6.12330537 2.45901301 9.125 4.75 C19.53715288 12.29068843 31.4592991 17.44654134 43 23 C43.95696777 23.46132324 44.91393555 23.92264648 45.89990234 24.39794922 C50.49381514 26.60843679 55.0947398 28.80380793 59.69921875 30.9921875 C67.27752102 34.599966 74.82514987 38.27068133 82.375 41.9375 C92.0731487 46.64645073 101.77660861 51.34331074 111.5 56 C121.89793703 60.98002857 132.27297459 66.00637109 142.64453125 71.04101562 C151.5865757 75.38125841 160.53541564 79.70643591 169.5 84 C179.89792311 88.98005791 190.27297441 94.006371 200.64453125 99.04101562 C210.55805614 103.8527905 220.47631888 108.65407778 230.42480469 113.39331055 C235.78195307 115.95100415 241.11706327 118.54736238 246.42871094 121.19802856 C249.45206148 122.70544434 252.48043284 124.2026285 255.5090332 125.69946289 C256.99251051 126.43627224 258.47352102 127.17807105 259.9519043 127.92504883 C262.0192171 128.96916282 264.09436797 129.99588728 266.171875 131.01953125 C266.78846985 131.33654495 267.4050647 131.65355865 268.04034424 131.98017883 C270.71000934 133.27752753 272.62497161 134.02420781 275.61352539 133.83129883 C278.18739652 132.93472275 280.57280505 131.89809279 283.01171875 130.6796875 C283.93404297 130.22722656 284.85636719 129.77476562 285.80664062 129.30859375 C287.73972305 128.34663951 289.67200583 127.38307679 291.60351562 126.41796875 C292.52197266 125.96808594 293.44042969 125.51820313 294.38671875 125.0546875 C295.22420654 124.63687012 296.06169434 124.21905273 296.92456055 123.78857422 C297.60945557 123.52834473 298.29435059 123.26811523 299 123 C299.66 123.33 300.32 123.66 301 124 C297.44596825 125.80150767 293.88451796 127.58597705 290.3125 129.3515625 C286.2885322 131.34320753 282.29954369 133.39645979 278.3125 135.4609375 C275.93799983 136.66244664 273.5629982 137.86296526 271.1875 139.0625 C270.05594482 139.65893311 268.92438965 140.25536621 267.75854492 140.86987305 C260.43458234 144.52088151 255.01261278 146.25592416 247 144 C242.45698847 142.33942624 238.15143191 140.31942774 233.8125 138.1875 C232.58045673 137.5971686 231.3477784 137.00816095 230.11450195 136.42041016 C226.39641732 134.64023795 222.69575964 132.82599787 219 131 C217.92331055 130.46810059 216.84662109 129.93620117 215.73730469 129.38818359 C210.73432612 126.90567494 205.74377105 124.39929489 200.7578125 121.8828125 C194.3062109 118.63643761 187.79405386 115.52421006 181.27172852 112.4230957 C172.70192221 108.34556729 164.16191444 104.20828816 155.625 100.0625 C141.76844017 93.33636886 127.90365463 86.62842331 114 80 C113.28392578 79.65727051 112.56785156 79.31454102 111.83007812 78.96142578 C110.05618642 78.11422725 108.27829005 77.27542699 106.5 76.4375 C105.6234375 76.02371094 104.746875 75.60992187 103.84375 75.18359375 C101.49496237 74.20600769 99.20125216 73.40906045 96.78125 72.640625 C91.63363026 70.95549389 86.85873862 68.69108415 82 66.3125 C81.02724121 65.84191162 80.05448242 65.37132324 79.05224609 64.88647461 C75.69897752 63.26279487 72.34960475 61.63122357 69 60 C66.34692778 58.71235754 63.69302364 57.42643415 61.0390625 56.140625 C56.81817581 54.09546461 52.59761818 52.04964347 48.37890625 50 C41.81075185 46.80972648 35.23843882 43.629317 28.6484375 40.484375 C27.51970215 39.94546631 26.3909668 39.40655762 25.22802734 38.85131836 C23.1540314 37.8626331 21.07892642 36.87626911 19.00244141 35.89282227 C-0.10944484 26.78111032 -0.10944484 26.78111032 -4 19 C-4.51024268 12.44534398 -4.80854579 6.63664777 -1 1 C-0.67 0.67 -0.34 0.34 0 0 Z " fill="#00AAF0" transform="translate(4,122)"/>
<path d="M0 0 C1.08023438 0.52658203 2.16046875 1.05316406 3.2734375 1.59570312 C5.64296612 2.75108208 8.0110519 3.90904164 10.37744141 5.07080078 C14.34343881 7.01632377 18.31740113 8.9452168 22.29296875 10.87109375 C23.32228264 11.36972679 23.32228264 11.36972679 24.37239075 11.87843323 C25.77162552 12.55619697 27.17088202 13.23391585 28.57015991 13.91159058 C30.70125556 14.94416495 32.83179405 15.97788024 34.9621582 17.01196289 C44.18349093 21.4875275 53.41720667 25.93638234 62.6628418 30.36157227 C69.17341015 33.48101239 75.67000342 36.62802305 82.16012573 39.78968811 C89.14368861 43.19082665 96.1361522 46.57332391 103.13336182 49.94628906 C105.17112076 50.9295963 107.20745277 51.91581223 109.24365234 52.90234375 C112.45022752 54.4538902 115.66365129 55.9903255 118.88265991 57.51589966 C120.63215743 58.34865705 122.37540315 59.19450923 124.1184082 60.04077148 C130.28924124 62.94472039 135.35397791 64.65755529 142.1875 64.9375 C138.99473692 68.37224091 135.42237152 70.09211766 131.25 72.125 C130.55326172 72.49302734 129.85652344 72.86105469 129.13867188 73.24023438 C122.19447659 76.61527609 114.99496544 77.4295945 107.54370117 75.11694336 C104.86940524 73.96552824 102.32035319 72.68006271 99.75 71.3125 C97.73343245 70.29486015 95.71648704 69.27796882 93.69921875 68.26171875 C92.6426709 67.71950684 91.58612305 67.17729492 90.49755859 66.61865234 C85.3340963 63.99617105 80.10971452 61.50275309 74.88717651 59.00054932 C71.80439635 57.52131393 68.72663081 56.03171906 65.6484375 54.54296875 C64.40204048 53.94054641 63.15562121 53.3381701 61.90917969 52.73583984 C61.29328979 52.4382074 60.6773999 52.14057495 60.04284668 51.83392334 C55.19386305 49.49110399 50.34382671 47.15046417 45.49395752 44.80947876 C42.47508378 43.35226554 39.45629632 41.8948736 36.4375 40.4375 C35.22916708 39.85416581 34.02083375 39.27083248 32.8125 38.6875 C25.5625 35.1875 25.5625 35.1875 23.75032043 34.31265259 C22.54092118 33.72880608 21.33151973 33.14496412 20.12211609 32.56112671 C17.11757332 31.11068218 14.11307618 29.66014331 11.10864258 28.20947266 C5.47707735 25.49041613 -0.15482249 22.77206205 -5.78799438 20.05633545 C-8.43123101 18.78198721 -11.07426549 17.50722003 -13.71728516 16.23242188 C-14.96995141 15.62837191 -16.22271525 15.02452426 -17.47558594 14.42089844 C-23.94427216 11.30426363 -30.40121377 8.17074398 -36.8125 4.9375 C-33.55374635 1.40082905 -29.79114638 -0.27083307 -25.5 -2.3125 C-24.75298828 -2.68890625 -24.00597656 -3.0653125 -23.23632812 -3.453125 C-14.18946679 -7.77401399 -8.48935814 -4.20153112 0 0 Z " fill="#0285DD" transform="translate(117.8125,201.0625)"/>
<path d="M0 0 C0.79454086 0.39036942 1.58908173 0.78073883 2.40769958 1.18293762 C4.98495022 2.45090297 7.55682484 3.72939895 10.12890625 5.0078125 C11.91574026 5.88866599 13.70301499 6.76862603 15.49072266 7.64770508 C19.00043092 9.3737921 22.50873367 11.10268287 26.01611328 12.83349609 C31.51143044 15.54109653 37.03209533 18.19342759 42.56640625 20.8203125 C51.03238698 24.84935581 59.47361125 28.927839 67.9079895 33.02249146 C96.85164666 47.07425132 96.85164666 47.07425132 125.94140625 60.8203125 C127.04347412 61.33819336 128.14554199 61.85607422 129.28100586 62.38964844 C130.82220093 63.10362793 130.82220093 63.10362793 132.39453125 63.83203125 C133.29848633 64.25315186 134.20244141 64.67427246 135.13378906 65.1081543 C137.655421 66.11839573 140.01638325 66.69349929 142.69140625 67.1328125 C139.2521643 69.94831284 135.48761755 71.90252585 131.50390625 73.8203125 C130.88193359 74.14064453 130.25996094 74.46097656 129.61914062 74.79101562 C124.16113579 77.41108141 118.62827 78.29465903 112.71565247 76.54972839 C110.76933808 75.72711763 108.90848636 74.81324185 107.03515625 73.8359375 C106.33929413 73.49137009 105.64343201 73.14680267 104.92648315 72.79179382 C102.67296623 71.67160456 100.43262346 70.52738114 98.19140625 69.3828125 C96.6137361 68.59389562 95.03511082 67.80688608 93.45556641 67.02172852 C90.30683628 65.45486763 87.16215089 63.88033633 84.02050781 62.29931641 C78.40539315 59.48010882 72.74038018 56.76867828 67.06640625 54.0703125 C57.42517377 49.45775739 47.80619958 44.80012681 38.19140625 40.1328125 C27.42224885 34.90556441 16.64553694 29.69497268 5.84912109 24.52416992 C0.31254366 21.87238325 -5.21949455 19.21156335 -10.74609375 16.5390625 C-12.61668645 15.63529724 -14.48732797 14.7316331 -16.35797119 13.82797241 C-18.14534471 12.96380531 -19.93181346 12.09776766 -21.71826172 11.23168945 C-22.79736816 10.71050537 -23.87647461 10.18932129 -24.98828125 9.65234375 C-25.94460449 9.18932861 -26.90092773 8.72631348 -27.88623047 8.24926758 C-30.36551547 7.05278073 -30.36551547 7.05278073 -33.30859375 6.1328125 C-33.30859375 5.4728125 -33.30859375 4.8128125 -33.30859375 4.1328125 C-30.27948985 2.58596924 -27.23370869 1.07524458 -24.18359375 -0.4296875 C-23.32765625 -0.86732422 -22.47171875 -1.30496094 -21.58984375 -1.75585938 C-20.75195312 -2.16513672 -19.9140625 -2.57441406 -19.05078125 -2.99609375 C-18.28620605 -3.37838135 -17.52163086 -3.76066895 -16.73388672 -4.15454102 C-10.6567028 -5.94025672 -5.3178798 -2.66585719 0 0 Z " fill="#F862B1" transform="translate(114.30859375,321.8671875)"/>
</svg>
